<?xml version="1.0" standalone="no"?><!DOCTYPE svg PUBLIC "-//W3C//DTD SVG 1.1//EN" "http://www.w3.org/Graphics/SVG/1.1/DTD/svg11.dtd"><svg t="1499931241094" class="icon" style="" viewBox="0 0 1136 1024" version="1.1" xmlns="http://www.w3.org/2000/svg" p-id="2201" xmlns:xlink="http://www.w3.org/1999/xlink" width="221.875" height="200"><defs><style type="text/css"></style></defs><path d="M823.296 452.096c0-138.24-127.488-250.88-284.16-250.88s-284.16 112.64-284.16 250.88c0 75.776 40.448 149.504 108.032 196.608v51.712c0 16.384 9.216 32.256 24.064 40.448 7.168 3.584 14.848 5.632 22.016 5.632 9.216 0 18.432-2.56 24.576-7.168l32.768-21.504h0.512c0.512-0.512 1.536-1.024 2.56-1.536l23.552-15.36c14.336 2.048 29.696 3.584 46.08 3.584 156.672-1.024 284.16-113.664 284.16-252.416z m-284.672 211.456c-14.336 0-30.208-1.536-47.104-4.096h-3.584c-3.584 0-7.68 1.024-11.264 3.072l-29.696 19.968-6.144-6.144v11.264l-28.672 18.944c-0.512 0-1.536 0.512-3.072 0.512s-2.56-0.512-3.584-0.512c-1.536-1.024-3.584-3.072-3.584-5.632v-61.952c0-6.656-3.072-12.288-9.216-16.384-61.952-39.936-98.816-103.424-98.816-169.984 0-116.736 110.08-211.456 245.248-211.456 71.168 0 138.752 26.624 185.344 73.728 38.4 38.4 59.392 87.04 58.88 137.728 0.512 116.224-109.568 210.944-244.736 210.944z m337.92-122.368c-2.56-11.264-6.656-22.528-12.8-36.352-3.584-6.656-10.24-11.264-17.92-11.264-3.072 0-6.144 0.512-8.192 2.048-4.608 2.048-8.192 5.632-10.24 11.264-2.048 5.632-2.048 10.752 0.512 15.36 4.608 9.216 7.68 18.432 10.24 27.648 2.56 10.752 4.096 22.016 4.096 32.768 0 47.616-26.112 93.696-70.656 123.904-5.12 4.096-8.192 9.728-8.192 16.384v40.96c0 2.56-0.512 4.096-2.56 5.12h-0.512c-1.536 0.512-3.072 0.512-3.584 0.512-1.536 0-2.048-0.512-3.584-1.024l-17.92-12.288-0.512 0.512-4.608-2.56h-0.512c-0.512 0-0.512-0.512-1.024-0.512l-0.512-0.512-20.48-13.824c-3.584-2.048-7.168-3.072-10.752-3.072h-3.584c-11.264 2.048-22.528 3.072-33.792 3.072-32.768 0-63.488-7.68-91.136-22.528-2.56-2.048-5.632-2.56-9.728-2.56-7.68 0-14.336 4.096-17.408 10.24-2.56 4.096-3.072 9.216-1.536 14.848 2.048 5.12 5.12 8.704 9.728 11.264 33.792 17.92 71.168 27.136 110.592 27.136 9.728 0 20.48-1.024 32.768-2.56l16.896 11.264 22.528 14.336c7.68 5.12 16.896 7.68 25.6 7.68 4.608 0 8.192-0.512 11.776-1.536 1.536-0.512 3.072-0.512 4.608-0.512 1.536 0 3.072-1.024 4.096-2.048 14.336-8.192 23.552-23.552 23.552-40.448v-31.232c49.664-36.864 79.36-92.672 79.36-150.016 0.512-12.8-1.024-26.624-4.608-41.472z m-328.192-114.688c-15.872 0-28.672 12.8-28.672 28.672 0 15.872 12.8 28.672 28.672 28.672 15.872 0 28.672-12.8 28.672-28.672 0-15.872-12.8-28.672-28.672-28.672z m-87.552 0c-15.872 0-28.672 12.8-28.672 28.672 0 15.872 12.8 28.672 28.672 28.672 15.872 0 28.672-12.8 28.672-28.672 0-15.872-12.8-28.672-28.672-28.672z m175.616 0c-15.872 0-28.672 12.8-28.672 28.672 0 15.872 12.8 28.672 28.672 28.672s28.672-12.8 28.672-28.672c0-15.872-12.288-28.672-28.672-28.672z" p-id="2202" fill="#bdbeca"></path></svg>