<?xml version="1.0" standalone="no"?><!DOCTYPE svg PUBLIC "-//W3C//DTD SVG 1.1//EN" "http://www.w3.org/Graphics/SVG/1.1/DTD/svg11.dtd"><svg t="1499933013997" class="icon" style="" viewBox="0 0 1024 1024" version="1.1" xmlns="http://www.w3.org/2000/svg" p-id="3001" xmlns:xlink="http://www.w3.org/1999/xlink" width="200" height="200"><defs><style type="text/css"></style></defs><path d="M512.953049 74.786517c-241.465528 0-437.213483 195.746996-437.213483 437.214442 0 241.467446 195.746996 437.213483 437.213483 437.213483 241.477993 0 437.224989-195.746037 437.224989-437.213483C950.178037 270.534472 754.431041 74.786517 512.953049 74.786517zM512.374891 875.47973c-201.221753 0-364.344569-163.122816-364.344569-364.340734 0-201.221753 163.122816-364.344569 364.344569-364.344569 201.231341 0 364.354157 163.122816 364.354157 364.344569C876.72809 712.356914 713.607191 875.47973 512.374891 875.47973zM718.39161 339.685154c-11.213184 0-21.243206 5.046172-27.958652 12.985049L447.130367 595.955536l-113.013933-113.014891-0.033558 0.033558c-6.677094-6.980075-16.076225-11.333993-26.498397-11.333993-20.254682 0-36.674157 16.419476-36.674157 36.674157 0 10.553528 4.46418 20.059086 11.599581 26.750562l112.754097 112.753139-0.111221 0.110262 24.027566 24.026607c6.719281 7.580285 16.522067 12.364704 27.449528 12.364704 10.385738 0 19.757064-4.325154 26.429363-11.264l0.04794 0 268.323476-268.3043c8.279251-6.712569 13.574712-16.96024 13.574712-28.451476C755.005363 356.076824 738.614652 339.685154 718.39161 339.685154z" p-id="3002" fill="#bdbeca"></path></svg>